<svg width="24" height="24" viewBox="0 0 24 24" fill="none" xmlns="http://www.w3.org/2000/svg">
<path d="M21.624 9.17972L13.2018 17.7212C13.1016 17.8226 12.993 17.8945 12.876 17.9371C12.759 17.9797 12.6337 18.0007 12.5 18C12.3663 18 12.241 17.9787 12.124 17.9361C12.007 17.8935 11.8984 17.8219 11.7982 17.7212L3.35092 9.17972C3.11697 8.94316 3 8.64746 3 8.29262C3 7.93779 3.12533 7.63364 3.37599 7.38018C3.62665 7.12673 3.91908 7 4.2533 7C4.58751 7 4.87995 7.12673 5.13061 7.38018L12.5 14.8318L19.8694 7.38018C20.1033 7.14362 20.3918 7.02535 20.7347 7.02535C21.0776 7.02535 21.374 7.15207 21.624 7.40553C21.8747 7.65898 22 7.95468 22 8.29262C22 8.63056 21.8747 8.92626 21.624 9.17972Z" fill="#FF551F"/>
</svg>
