<svg width="40" height="40" viewBox="0 0 40 40" fill="none" xmlns="http://www.w3.org/2000/svg">
<circle cx="20" cy="20" r="19.5" fill="white" stroke="#FCF1ED"/>
<path d="M22.8203 29.624L14.2788 21.2018C14.1774 21.1016 14.1055 20.993 14.0629 20.876C14.0203 20.759 13.9993 20.6337 14 20.5C14 20.3663 14.0213 20.241 14.0639 20.124C14.1065 20.007 14.1781 19.8984 14.2788 19.7982L22.8203 11.3509C23.0568 11.117 23.3525 11 23.7074 11C24.0622 11 24.3664 11.1253 24.6198 11.376C24.8733 11.6266 25 11.9191 25 12.2533C25 12.5875 24.8733 12.8799 24.6198 13.1306L17.1682 20.5L24.6198 27.8694C24.8564 28.1033 24.9747 28.3918 24.9747 28.7347C24.9747 29.0776 24.8479 29.374 24.5945 29.624C24.341 29.8747 24.0453 30 23.7074 30C23.3694 30 23.0737 29.8747 22.8203 29.624Z" fill="#FF551F"/>
</svg>
