<svg width="40" height="40" viewBox="0 0 40 40" fill="none" xmlns="http://www.w3.org/2000/svg">
<circle cx="20" cy="20" r="19.5" transform="rotate(-180 20 20)" fill="white" stroke="#FCF1ED"/>
<path d="M17.1797 10.376L25.7212 18.7982C25.8226 18.8984 25.8945 19.007 25.9371 19.124C25.9797 19.241 26.0007 19.3663 26 19.5C26 19.6337 25.9787 19.759 25.9361 19.876C25.8935 19.993 25.8219 20.1016 25.7212 20.2018L17.1797 28.6491C16.9432 28.883 16.6475 29 16.2926 29C15.9378 29 15.6336 28.8747 15.3802 28.624C15.1267 28.3734 15 28.0809 15 27.7467C15 27.4125 15.1267 27.1201 15.3802 26.8694L22.8318 19.5L15.3802 12.1306C15.1436 11.8967 15.0253 11.6082 15.0253 11.2653C15.0253 10.9224 15.1521 10.626 15.4055 10.376C15.659 10.1253 15.9547 10 16.2926 10C16.6306 10 16.9263 10.1253 17.1797 10.376Z" fill="#FF551F"/>
</svg>
