<svg width="36" height="36" viewBox="0 0 36 36" fill="none" xmlns="http://www.w3.org/2000/svg">
<circle cx="18" cy="18" r="18" fill="white"/>
<path d="M18.71 23.29C18.6608 23.2448 18.6072 23.2046 18.55 23.17C18.4989 23.1304 18.4414 23.1 18.38 23.08C18.3205 23.0496 18.2562 23.0293 18.19 23.02C17.9984 22.9795 17.7989 23.0005 17.62 23.08C17.4959 23.1249 17.3832 23.1966 17.2899 23.2899C17.1966 23.3832 17.1249 23.4959 17.08 23.62C17.024 23.7387 16.9966 23.8688 17 24C16.9984 24.13 17.0222 24.2591 17.07 24.38C17.128 24.4995 17.202 24.6105 17.29 24.71C17.3834 24.8027 17.4943 24.876 17.6161 24.9258C17.7379 24.9755 17.8684 25.0008 18 25C18.1312 25.0034 18.2613 24.976 18.38 24.92C18.5012 24.8694 18.6128 24.7983 18.71 24.71C18.8027 24.6166 18.876 24.5057 18.9258 24.3839C18.9755 24.2621 19.0008 24.1316 19 24C18.9984 23.8693 18.9712 23.7402 18.92 23.62C18.8724 23.4972 18.801 23.3851 18.71 23.29ZM14.55 19.17C14.4989 19.1304 14.4414 19.1 14.38 19.08C14.3218 19.0426 14.2575 19.0155 14.19 19C14.0617 18.9701 13.9283 18.9701 13.8 19L13.62 19.06L13.44 19.15L13.29 19.27C13.1025 19.4667 12.9986 19.7283 13 20C12.9992 20.1316 13.0245 20.2621 13.0742 20.3839C13.124 20.5057 13.1973 20.6166 13.29 20.71C13.3872 20.7983 13.4988 20.8694 13.62 20.92C13.7715 20.9822 13.936 21.0063 14.0989 20.9901C14.2619 20.9739 14.4184 20.9179 14.5547 20.8271C14.691 20.7362 14.8029 20.6133 14.8805 20.4691C14.9582 20.3249 14.9992 20.1638 15 20C14.9963 19.7352 14.8927 19.4816 14.71 19.29L14.55 19.17ZM14.71 23.29C14.6149 23.199 14.5028 23.1276 14.38 23.08C14.199 22.9961 13.997 22.9682 13.8 23L13.62 23.06C13.5563 23.0819 13.4957 23.1122 13.44 23.15C13.3876 23.1869 13.3375 23.227 13.29 23.27C13.199 23.3651 13.1276 23.4772 13.08 23.6C13.0271 23.7197 12.9998 23.8491 12.9998 23.98C12.9998 24.1109 13.0271 24.2403 13.08 24.36C13.1306 24.4812 13.2017 24.5928 13.29 24.69C13.3818 24.7863 13.4918 24.8633 13.6138 24.9165C13.7357 24.9698 13.867 24.9981 14 25C14.1312 25.0034 14.2613 24.976 14.38 24.92C14.5012 24.8694 14.6128 24.7983 14.71 24.71C14.7983 24.6128 14.8694 24.5012 14.92 24.38C14.9729 24.2603 15.0002 24.1309 15.0002 24C15.0002 23.8691 14.9729 23.7397 14.92 23.62C14.8724 23.4972 14.801 23.3851 14.71 23.29ZM17.62 19.08C17.4972 19.1276 17.3851 19.199 17.29 19.29C17.1073 19.4816 17.0037 19.7352 17 20C17.0008 20.1638 17.0418 20.3249 17.1195 20.4691C17.1971 20.6133 17.309 20.7362 17.4453 20.8271C17.5816 20.9179 17.7381 20.9739 17.9011 20.9901C18.064 21.0063 18.2285 20.9822 18.38 20.92C18.5012 20.8694 18.6128 20.7983 18.71 20.71C18.8027 20.6166 18.876 20.5057 18.9258 20.3839C18.9755 20.2621 19.0008 20.1316 19 20C18.9963 19.7352 18.8927 19.4816 18.71 19.29C18.5694 19.1512 18.3908 19.0572 18.1968 19.0199C18.0028 18.9825 17.8021 19.0034 17.62 19.08ZM22.71 23.29C22.6128 23.2017 22.5012 23.1306 22.38 23.08C22.1979 23.0034 21.9972 22.9825 21.8032 23.0199C21.6092 23.0572 21.4306 23.1512 21.29 23.29C21.199 23.3851 21.1276 23.4972 21.08 23.62C21.0271 23.7397 20.9998 23.8691 20.9998 24C20.9998 24.1309 21.0271 24.2603 21.08 24.38C21.1306 24.5012 21.2017 24.6128 21.29 24.71C21.3834 24.8027 21.4943 24.876 21.6161 24.9258C21.7379 24.9755 21.8684 25.0008 22 25C22.1312 25.0034 22.2613 24.976 22.38 24.92C22.5012 24.8694 22.6128 24.7983 22.71 24.71C22.8488 24.5694 22.9428 24.3908 22.9801 24.1968C23.0175 24.0028 22.9966 23.8021 22.92 23.62C22.8724 23.4972 22.801 23.3851 22.71 23.29ZM22 11H14C13.7348 11 13.4804 11.1054 13.2929 11.2929C13.1054 11.4804 13 11.7348 13 12V16C13 16.2652 13.1054 16.5196 13.2929 16.7071C13.4804 16.8946 13.7348 17 14 17H22C22.2652 17 22.5196 16.8946 22.7071 16.7071C22.8946 16.5196 23 16.2652 23 16V12C23 11.7348 22.8946 11.4804 22.7071 11.2929C22.5196 11.1054 22.2652 11 22 11ZM21 15H15V13H21V15ZM24 7H12C11.2044 7 10.4413 7.31607 9.87868 7.87868C9.31607 8.44129 9 9.20435 9 10V26C9 26.7956 9.31607 27.5587 9.87868 28.1213C10.4413 28.6839 11.2044 29 12 29H24C24.7956 29 25.5587 28.6839 26.1213 28.1213C26.6839 27.5587 27 26.7956 27 26V10C27 9.20435 26.6839 8.44129 26.1213 7.87868C25.5587 7.31607 24.7956 7 24 7ZM25 26C25 26.2652 24.8946 26.5196 24.7071 26.7071C24.5196 26.8946 24.2652 27 24 27H12C11.7348 27 11.4804 26.8946 11.2929 26.7071C11.1054 26.5196 11 26.2652 11 26V10C11 9.73478 11.1054 9.48043 11.2929 9.29289C11.4804 9.10536 11.7348 9 12 9H24C24.2652 9 24.5196 9.10536 24.7071 9.29289C24.8946 9.48043 25 9.73478 25 10V26ZM22.55 19.17C22.4989 19.1304 22.4414 19.1 22.38 19.08C22.3205 19.0496 22.2562 19.0293 22.19 19.02C22.0617 18.9901 21.9283 18.9901 21.8 19.02L21.62 19.08L21.44 19.17L21.29 19.29C21.1073 19.4816 21.0037 19.7352 21 20C21.0008 20.1638 21.0418 20.3249 21.1195 20.4691C21.1971 20.6133 21.309 20.7362 21.4453 20.8271C21.5816 20.9179 21.7381 20.9739 21.9011 20.9901C22.064 21.0063 22.2285 20.9822 22.38 20.92C22.5012 20.8694 22.6128 20.7983 22.71 20.71C22.8027 20.6166 22.876 20.5057 22.9258 20.3839C22.9755 20.2621 23.0008 20.1316 23 20C22.9963 19.7352 22.8927 19.4816 22.71 19.29L22.55 19.17Z" fill="#FF551F"/>
</svg>
