<?xml version="1.0" standalone="no"?>
<!DOCTYPE svg PUBLIC "-//W3C//DTD SVG 20010904//EN"
 "http://www.w3.org/TR/2001/REC-SVG-20010904/DTD/svg10.dtd">
<svg version="1.0" xmlns="http://www.w3.org/2000/svg"
 width="20" height="20" viewBox="0 0 20.000000 21.000000"
 preserveAspectRatio="xMidYMid meet">

<g transform="translate(0.000000,21.000000) scale(0.100000,-0.100000)"
fill="#FF551F" stroke="none">
<path d="M46 179 c-38 -30 -49 -64 -35 -106 27 -84 151 -83 179 1 13 41 2 75
-36 105 -34 27 -74 27 -108 0z m117 -25 c4 -4 -6 -22 -22 -40 -16 -18 -34 -41
-40 -51 -10 -17 -13 -15 -42 15 -34 38 -31 57 4 24 l22 -21 28 40 c28 39 38
45 50 33z"/>
</g>
</svg>
