<svg width="40" height="40" viewBox="0 0 40 40" fill="none" xmlns="http://www.w3.org/2000/svg">
<rect width="40" height="40" rx="20" fill="white"/>
<path d="M26.6035 30.29H14.1171V31.3902H26.6035V30.29Z" fill="#141414"/>
<path d="M35.5698 25.4492H32.8195V26.5493H35.5698V25.4492Z" fill="#141414"/>
<path d="M8.61645 31.3899H3.77589C3.44586 31.3899 3.22583 31.1699 3.22583 30.8398V25.9993C3.22583 25.6692 3.44586 25.4492 3.77589 25.4492H23.8532V26.5493H4.32596V30.2898H8.61645V31.3899Z" fill="#141414"/>
<path d="M14.8323 23.7982H5.15114C4.8211 23.7982 4.60107 23.5782 4.60107 23.2481V15.6022C4.60107 15.4372 4.71109 15.2722 4.8211 15.1622C4.98612 15.0522 5.15114 15.0522 5.31616 15.1072L14.9973 19.2877C15.2173 19.3977 15.3273 19.5627 15.3273 19.7827V23.2481C15.3823 23.5231 15.1073 23.7982 14.8323 23.7982ZM5.7012 22.6981H14.2822V20.1678L5.7012 16.4273V22.6981Z" fill="#F78D1D"/>
<path d="M33.5339 23.0833H27.9783C27.6482 23.0833 27.4282 22.8632 27.4282 22.5332V17.6926C27.4282 17.3626 27.6482 17.1426 27.9783 17.1426H31.4437V18.2427H28.5283V21.9831H33.5339V23.0833Z" fill="#141414"/>
<path d="M35.5696 31.3898H32.1042V30.2897H35.0195V24.239L33.2043 23.0288C33.0943 22.9738 33.0393 22.9188 32.9843 22.8088L29.9039 15.988C29.7939 15.713 29.4639 15.4929 29.1338 15.4929H24.3483V30.8397H23.2482V14.9429C23.2482 14.6128 23.4682 14.3928 23.7982 14.3928H29.1338C29.9039 14.3928 30.564 14.8329 30.8941 15.548L33.9194 22.2037L35.8446 23.5239C36.0096 23.6339 36.0646 23.7989 36.0646 23.9639V30.8947C36.1197 31.1698 35.8996 31.3898 35.5696 31.3898Z" fill="#141414"/>
<path d="M34.1944 14.7776C33.6993 14.7776 33.2043 14.5576 32.8192 14.2275L32.4342 13.8425C32.2142 13.6225 32.2142 13.2924 32.4342 13.0724C32.6542 12.8524 32.9842 12.8524 33.2043 13.0724L33.5893 13.4574C33.8093 13.6775 34.0844 13.7325 34.4144 13.6775C34.6894 13.6225 34.9645 13.3474 35.0195 13.0724C35.0745 12.7974 35.0195 12.4673 34.7995 12.3023C34.0844 11.6422 33.6993 10.7621 33.6993 9.82702V5.26149C33.6993 4.93145 33.9194 4.71143 34.2494 4.71143C34.5794 4.71143 34.7995 4.93145 34.7995 5.26149V9.77201C34.7995 10.3771 35.0745 10.9821 35.5695 11.4222C36.0646 11.8623 36.2846 12.5773 36.1196 13.2374C35.9546 13.9525 35.4045 14.5576 34.6894 14.7226C34.5244 14.7776 34.3594 14.7776 34.1944 14.7776Z" fill="#141414"/>
<path d="M9.16641 23.7988H8.06628V25.9991H9.16641V23.7988Z" fill="#141414"/>
<path d="M13.2919 23.7988H12.1918V25.9991H13.2919V23.7988Z" fill="#141414"/>
<path d="M11.6966 18.7932L11.1466 17.8581L34.8543 3.7215C35.0193 3.61149 35.0193 3.44647 35.0193 3.39146C35.0193 3.33646 35.0193 3.17144 34.8543 3.06143C34.7443 3.00642 34.6343 3.00642 34.4693 3.06143L5.31591 16.1529L4.87585 15.1628L34.0292 2.07131C34.4693 1.85129 34.9643 1.90629 35.4044 2.18133C35.8444 2.45636 36.1195 2.95141 36.1195 3.44647C36.1195 3.99653 35.8444 4.43659 35.4044 4.71162L11.6966 18.7932Z" fill="#F78D1D"/>
<path d="M29.3537 34.1401C27.5385 34.1401 26.0533 32.6549 26.0533 30.8397C26.0533 29.0245 27.5385 27.5393 29.3537 27.5393C31.1689 27.5393 32.6541 29.0245 32.6541 30.8397C32.6541 32.6549 31.1689 34.1401 29.3537 34.1401ZM29.3537 28.6394C28.1436 28.6394 27.1535 29.6295 27.1535 30.8397C27.1535 32.0498 28.1436 33.0399 29.3537 33.0399C30.5639 33.0399 31.554 32.0498 31.554 30.8397C31.609 29.6295 30.5639 28.6394 29.3537 28.6394Z" fill="#F78D1D"/>
<path d="M11.3667 34.1401C9.55146 34.1401 8.06628 32.6549 8.06628 30.8397C8.06628 29.0245 9.55146 27.5393 11.3667 27.5393C13.1819 27.5393 14.667 29.0245 14.667 30.8397C14.667 32.6549 13.1819 34.1401 11.3667 34.1401ZM11.3667 28.6394C10.1565 28.6394 9.16641 29.6295 9.16641 30.8397C9.16641 32.0498 10.1565 33.0399 11.3667 33.0399C12.5768 33.0399 13.5669 32.0498 13.5669 30.8397C13.5669 29.6295 12.5768 28.6394 11.3667 28.6394Z" fill="#F78D1D"/>
</svg>
