<svg width="40" height="40" viewBox="0 0 40 40" fill="none" xmlns="http://www.w3.org/2000/svg">
<rect width="40" height="40" rx="20" fill="white"/>
<path d="M19.7402 35.4839C17.0371 35.4839 14.4421 34.5267 12.3336 32.7186C9.84677 30.5383 8.38708 27.3476 8.38708 23.9974C8.38708 19.69 10.7118 16.9247 13.1986 13.9467C15.7936 10.8624 18.4427 7.67172 18.6589 2.40709C18.6589 1.76895 19.1996 1.29034 19.7942 1.29034C20.3889 1.29034 20.9295 1.76895 20.9295 2.40709C21.0917 7.67172 23.7949 10.8624 26.3898 13.9467C28.7145 16.712 30.877 19.3177 31.1473 23.1466C31.5798 29.1025 27.1467 34.5799 21.2539 35.3244C20.7674 35.4307 20.2267 35.4839 19.7402 35.4839ZM19.7942 2.40709C19.7402 2.40709 19.7402 2.46026 19.7402 2.46026C19.5239 8.09715 16.6046 11.5537 14.0096 14.6381C11.6849 17.4565 9.46833 20.1154 9.46833 23.9974C9.46833 27.0286 10.7658 29.9534 13.0905 31.921C15.3071 33.8354 18.1724 34.6862 21.1458 34.314C26.498 33.6227 30.4986 28.6771 30.0661 23.2529C29.7958 19.7432 27.7414 17.297 25.5248 14.6381C22.9299 11.5537 20.0105 8.09715 19.8483 2.46026L19.7942 2.40709Z" fill="#141414"/>
<path d="M16.7667 21.778C15.307 21.778 14.1177 20.6081 14.1177 19.1723C14.1177 17.7365 15.307 16.5666 16.7667 16.5666C18.2264 16.5666 19.4158 17.7365 19.4158 19.1723C19.4158 20.6081 18.2264 21.778 16.7667 21.778ZM16.7667 17.6302C15.9017 17.6302 15.1989 18.3215 15.1989 19.1723C15.1989 20.0232 15.9017 20.7145 16.7667 20.7145C17.6317 20.7145 18.3345 20.0232 18.3345 19.1723C18.3345 18.3215 17.6317 17.6302 16.7667 17.6302Z" fill="#FF551F"/>
<path d="M22.9839 28.9038C21.5242 28.9038 20.3348 27.7339 20.3348 26.2981C20.3348 24.8622 21.5242 23.6923 22.9839 23.6923C24.4436 23.6923 25.6329 24.8622 25.6329 26.2981C25.6329 27.7339 24.4436 28.9038 22.9839 28.9038ZM22.9839 24.7559C22.1189 24.7559 21.4161 25.4472 21.4161 26.2981C21.4161 27.1489 22.1189 27.8402 22.9839 27.8402C23.8489 27.8402 24.5517 27.1489 24.5517 26.2981C24.5517 25.4472 23.8489 24.7559 22.9839 24.7559Z" fill="#FF551F"/>
<path d="M14.2799 28.9039C14.1718 28.9039 14.0096 28.8507 13.9014 28.7443C13.6852 28.5316 13.6852 28.2126 13.9014 27.9998L24.8761 16.6729C25.0924 16.4602 25.4167 16.4602 25.633 16.6729C25.8492 16.8856 25.8492 17.2047 25.633 17.4174L14.6583 28.7443C14.5502 28.8507 14.388 28.9039 14.2799 28.9039Z" fill="#FF551F"/>
</svg>
