<svg width="51" height="50" viewBox="0 0 51 50" fill="none" xmlns="http://www.w3.org/2000/svg">
<path d="M38.381 15.8871L28.5423 9.59675C26.1229 8.06449 22.9778 8.30643 20.881 10.1613L18.8649 11.9355V10.4838C18.8649 9.99998 18.5423 9.6774 18.0584 9.6774H10.8003C10.3165 9.6774 9.9939 9.99998 9.9939 10.4838V41.9355C9.9939 43.3064 11.0423 44.3548 12.4133 44.3548H38.2197C39.5907 44.3548 40.6391 43.3064 40.6391 41.9355V20C40.6391 18.3064 39.8326 16.7742 38.381 15.8871ZM11.6068 23.3871H18.6229L30.9616 31.129V37.0968H11.6068V23.3871ZM39.0262 41.9355C39.0262 42.4193 38.7036 42.7419 38.2197 42.7419H12.4133C11.9294 42.7419 11.6068 42.4193 11.6068 41.9355V38.7097H31.7681C32.252 38.7097 32.5745 38.3871 32.5745 37.9032V30.6451C32.5745 30.4032 32.4133 30.0806 32.1713 30L19.2681 21.9355C19.1874 21.8548 19.0262 21.7742 18.8649 21.7742H11.6068V11.2903H17.252V13.7097C17.252 14.0322 17.4133 14.2742 17.7358 14.4355C18.0584 14.5968 18.381 14.5161 18.6229 14.2742L21.9294 11.3709C23.5423 9.99998 25.881 9.75804 27.7358 10.8871L37.6552 17.0968C38.6229 17.6613 39.1874 18.7097 39.1874 19.8387V41.9355H39.0262Z" fill="#141414"/>
<path d="M35.8809 20.0806L25.4776 13.3871C24.8325 12.9838 24.026 13.0645 23.4615 13.629L21.3647 15.7258C21.0422 16.0484 20.8809 16.5322 20.8809 17.0161C20.9615 17.5 21.2034 17.9032 21.6067 18.2258L34.026 26.5322C34.268 26.6935 34.5905 26.7742 34.9131 26.7742C35.1551 26.7742 35.397 26.6935 35.6389 26.6129C36.2034 26.3709 36.526 25.8064 36.526 25.1613V21.4516C36.6067 20.8871 36.3647 20.3226 35.8809 20.0806ZM34.9938 25.0806L22.5744 16.7742L24.6712 14.6774L34.9938 21.3709V25.0806Z" fill="#FF551F"/>
<path d="M11.6068 7.25806H17.252V8.87096H18.8649V6.45161C18.8649 5.96774 18.5423 5.64516 18.0584 5.64516H10.8003C10.3165 5.64516 9.9939 5.96774 9.9939 6.45161V8.87096H11.6068V7.25806Z" fill="#141414"/>
</svg>
