<svg width="40" height="40" viewBox="0 0 40 40" fill="none" xmlns="http://www.w3.org/2000/svg">
<path d="M36.1374 29.709C36.0303 29.709 35.8696 29.6555 35.7625 29.5484L25.8562 20.4988C25.642 20.2846 25.642 19.9633 25.8026 19.7491C26.0168 19.5349 26.3381 19.5349 26.5523 19.6956L36.5122 28.7451C36.7264 28.9593 36.7264 29.2806 36.5657 29.4948C36.4586 29.6555 36.298 29.709 36.1374 29.709Z" fill="#F78D1D"/>
<path d="M18.1452 25.5323H13.9149C13.8078 25.5323 13.6471 25.4787 13.5401 25.3716L9.73816 21.891C9.63106 21.7839 9.57751 21.6233 9.57751 21.5162C9.57751 21.4091 9.63106 21.2484 9.73816 21.1413L12.7904 18.3568C13.0046 18.1962 13.3259 18.1427 13.4865 18.3568L15.0394 19.7491C15.2536 19.9633 15.2536 20.2846 15.0929 20.4988C14.9323 20.713 14.5575 20.713 14.3433 20.5523L13.1652 19.4814L10.8627 21.5697L14.1291 24.5684H18.1452C18.4665 24.5684 18.6806 24.7826 18.6806 25.1039C18.6806 25.4252 18.4665 25.5323 18.1452 25.5323Z" fill="#F78D1D"/>
<path d="M32.2283 32.3327C32.1212 32.3327 31.9606 32.2792 31.8535 32.1721L24.4639 25.5321H22.1613C21.84 25.5321 21.6259 25.3179 21.6259 24.9967C21.6259 24.6754 21.84 24.4612 22.1613 24.4612H24.6245C24.7316 24.4612 24.8923 24.5147 24.9994 24.6218L32.5496 31.3689C32.7638 31.583 32.7638 31.9043 32.6032 32.1185C32.5496 32.2256 32.389 32.3327 32.2283 32.3327Z" fill="#F78D1D"/>
<path d="M26.9806 32.5471C26.8736 32.5471 26.7129 32.4936 26.6058 32.3865L22.911 29.013H12.4156C12.3085 29.013 12.1479 28.9594 12.0408 28.8523L4.32992 21.8911C4.11573 21.6769 4.11573 21.3556 4.27637 21.1414C4.49057 20.9273 4.81185 20.9273 5.02604 21.0879L12.5763 27.942H23.1252C23.2323 27.942 23.3929 27.9956 23.5 28.1027L27.3555 31.6368C27.5697 31.851 27.5697 32.1723 27.409 32.3865C27.3019 32.4936 27.1413 32.5471 26.9806 32.5471Z" fill="#F78D1D"/>
<path d="M7.00731 19.2133C6.90022 19.2133 6.73957 19.1598 6.63248 19.0527L4.32992 16.9643C4.11573 16.7501 4.11573 16.4288 4.27637 16.2146C4.49057 16.0005 4.81185 16.0005 5.02604 16.1611L6.95376 17.9282L9.25632 15.8398L4.32992 11.3953C4.11573 11.1812 4.11573 10.8599 4.32992 10.5921C4.54411 10.3779 4.8654 10.3779 5.07959 10.5386L10.4344 15.465C10.5415 15.5721 10.595 15.7327 10.595 15.8398C10.595 15.9469 10.5415 16.1076 10.4344 16.2146L7.38215 18.9991C7.27505 19.1598 7.16796 19.2133 7.00731 19.2133Z" fill="#F78D1D"/>
<path d="M14.6647 15.6796C14.5576 15.6796 14.3969 15.626 14.2898 15.5189L8.18539 9.94995C7.9712 9.73576 7.9712 9.41447 8.13184 9.20028C8.34603 8.98609 8.66732 8.98609 8.88151 9.14674L14.986 14.7157C15.2002 14.9299 15.2002 15.2512 15.0395 15.4654C14.9324 15.626 14.8253 15.6796 14.6647 15.6796Z" fill="#F78D1D"/>
<path d="M36.1907 24.8363C36.0836 24.8363 35.9229 24.7827 35.8158 24.6756L27.5695 17.1254H26.0701C25.7489 17.1254 25.5347 16.9112 25.5347 16.5899C25.5347 16.2686 25.7489 16.0544 26.0701 16.0544H27.7837C27.8908 16.0544 28.0514 16.108 28.1585 16.2151L36.6191 23.926C36.8333 24.1402 36.8333 24.4615 36.6726 24.6756C36.512 24.7827 36.3513 24.8363 36.1907 24.8363Z" fill="#F78D1D"/>
<path d="M36.1908 17.1254C36.0837 17.1254 35.9231 17.0718 35.816 16.9647L28.1587 9.94995C27.9445 9.73576 27.9445 9.41447 28.1051 9.20028C28.3193 8.98609 28.6406 8.98609 28.8548 9.14674L36.5121 16.1615C36.7263 16.3757 36.7263 16.697 36.5657 16.9112C36.5121 17.0718 36.3515 17.1254 36.1908 17.1254Z" fill="#F78D1D"/>
<path d="M34.2095 32.5473H5.9363C4.54406 32.5473 3.41956 31.4228 3.41956 30.0305V11.5565C3.41956 10.1643 4.54406 9.03979 5.9363 9.03979H34.2095C35.6018 9.03979 36.7263 10.1643 36.7263 11.5565V30.0305C36.7263 31.4228 35.6018 32.5473 34.2095 32.5473ZM5.9363 10.1108C5.13309 10.1108 4.49051 10.7533 4.49051 11.5565V30.0305C4.49051 30.8338 5.13309 31.4763 5.9363 31.4763H34.2095C35.0128 31.4763 35.6553 30.8338 35.6553 30.0305V11.5565C35.6553 10.7533 35.0128 10.1108 34.2095 10.1108H5.9363Z" fill="#141414"/>
<path d="M36.6192 34.7423H3.41953C2.24148 34.7423 1.17052 34.0462 0.742137 33.0288C0.581494 32.7075 0.635042 32.3862 0.795685 32.0649C1.00988 31.7437 1.33116 31.583 1.706 31.583H38.2792C38.654 31.583 39.0288 31.7437 39.1895 32.0649C39.4037 32.3862 39.4037 32.7075 39.243 33.0288C38.8682 34.0462 37.7972 34.7423 36.6192 34.7423ZM38.3327 32.6004L1.706 32.654C1.97374 33.243 2.66986 33.6714 3.41953 33.6714H36.6192C37.3688 33.6714 38.065 33.243 38.3327 32.6004Z" fill="#141414"/>
<path d="M20.2871 28.9054C19.8052 28.9054 19.3768 28.5306 19.3233 27.9951C19.1626 25.7461 17.9846 24.5145 16.8065 23.1758C15.5214 21.73 14.1292 20.2307 14.1292 17.5533C14.1292 14.1797 16.8601 11.3953 20.2871 11.3953C23.7142 11.3953 26.4451 14.1262 26.4451 17.5533C26.4451 20.2307 25.1065 21.73 23.7678 23.1758C22.5362 24.5145 21.4117 25.7996 21.251 27.9951C21.1975 28.5306 20.7691 28.9054 20.2871 28.9054ZM20.2871 12.4662C17.5027 12.4662 15.2001 14.7688 15.2001 17.5533C15.2001 19.8023 16.3782 21.0874 17.5562 22.4797C18.6807 23.7113 19.8588 25.05 20.2336 27.1383C20.6084 25.05 21.7865 23.7648 22.911 22.4797C24.1426 21.141 25.2671 19.8558 25.2671 17.5533C25.3206 14.7688 23.0716 12.4662 20.2871 12.4662Z" fill="#141414"/>
<path d="M20.2871 19.8563C19.002 19.8563 17.931 18.7853 17.931 17.5001C17.931 16.215 19.002 15.144 20.2871 15.144C21.5723 15.144 22.6432 16.215 22.6432 17.5001C22.5897 18.8388 21.5723 19.8563 20.2871 19.8563ZM20.2871 16.2685C19.591 16.2685 19.002 16.8576 19.002 17.5537C19.002 18.2498 19.591 18.8388 20.2871 18.8388C20.9833 18.8388 21.5723 18.2498 21.5723 17.5537C21.5187 16.8576 20.9833 16.2685 20.2871 16.2685Z" fill="#141414"/>
</svg>
