<svg width="51" height="50" viewBox="0 0 51 50" fill="none" xmlns="http://www.w3.org/2000/svg">
<path d="M36.6066 19.6774C31.8485 19.6774 27.9775 23.5484 27.9775 28.3065C27.9775 29.2742 28.1388 30 28.4614 31.0484C29.2679 33.7903 35.6388 42.7419 35.9614 43.1452C36.1227 43.3871 36.3646 43.4678 36.6872 43.4678C36.9292 43.4678 37.2517 43.3065 37.413 43.0645C38.1388 42.0161 44.3485 33.0645 44.913 30.9678V30.8871C45.0743 30.0807 45.3162 29.2742 45.3162 28.3065C45.2356 23.5484 41.3646 19.6774 36.6066 19.6774ZM43.5421 28.3065C43.5421 29.0323 43.3808 29.7581 43.2195 30.4839V30.5645C42.8162 31.8548 39.0259 37.6613 36.6066 41.129C34.913 38.7097 30.7195 32.5 30.155 30.5645C29.913 29.6774 29.7517 29.1129 29.7517 28.3065C29.7517 24.5161 32.8162 21.4516 36.6066 21.4516C40.3969 21.371 43.5421 24.5161 43.5421 28.3065Z" fill="#141414"/>
<path d="M36.6068 24.4355C34.4294 24.4355 32.7358 26.2097 32.7358 28.3065C32.7358 30.4032 34.4294 32.2581 36.6068 32.2581C38.7842 32.2581 40.4778 30.4839 40.4778 28.3871C40.4778 26.2903 38.7842 24.4355 36.6068 24.4355ZM38.7842 28.3065C38.7842 29.5161 37.8165 30.4839 36.6068 30.4839C35.3971 30.4839 34.4294 29.5161 34.4294 28.3065C34.4294 27.0968 35.3971 26.129 36.6068 26.129C37.8165 26.129 38.7842 27.0968 38.7842 28.3065Z" fill="#141414"/>
<path d="M11.6873 24.1129C11.8486 24.3549 12.0905 24.4355 12.4131 24.4355C12.6551 24.4355 12.9776 24.2742 13.1389 24.0323C14.026 22.8226 18.3002 16.613 18.7034 15V14.9194C18.8647 14.3549 18.9454 13.7097 18.9454 12.9839C18.9454 9.43553 16.0422 6.45166 12.4131 6.45166C8.78409 6.45166 5.88086 9.43553 5.88086 12.9839C5.88086 13.7097 5.9615 14.2742 6.20344 15.0807C6.76796 17.1775 11.526 23.7904 11.6873 24.1129ZM7.57441 12.9839C7.57441 10.3226 9.75183 8.14521 12.4131 8.14521C15.0744 8.14521 17.2518 10.3226 17.2518 12.9839C17.2518 13.4678 17.0905 13.9517 17.0099 14.5162V14.5968C16.8486 15.4033 14.5099 18.9517 12.4131 22.0162C10.4776 19.1936 8.13892 15.7259 7.81634 14.5968C7.65505 13.9517 7.57441 13.5484 7.57441 12.9839Z" fill="#141414"/>
<path d="M15.5584 13.0645C15.5584 11.371 14.1874 9.91937 12.4132 9.91937C10.7197 9.91937 9.26807 11.2903 9.26807 13.0645C9.26807 14.8387 10.7197 16.129 12.4132 16.129C14.1068 16.129 15.5584 14.7581 15.5584 13.0645ZM11.0423 13.0645C11.0423 12.3387 11.6874 11.6936 12.4132 11.6936C13.139 11.6936 13.7842 12.3387 13.7842 13.0645C13.7842 13.7903 13.139 14.4355 12.4132 14.4355C11.6874 14.4355 11.0423 13.7903 11.0423 13.0645Z" fill="#141414"/>
<path d="M31.7679 42.3387H11.6066C9.026 42.3387 6.92922 40.2419 6.92922 37.6613C6.92922 35.0806 9.026 32.9839 11.6066 32.9839H19.9131C22.655 32.9839 24.8324 30.8064 24.8324 28.0645C24.8324 25.3226 22.655 23.1451 19.9131 23.1451H16.6873C16.2034 23.1451 15.8002 23.5484 15.8002 24.0322C15.8002 24.5161 16.2034 24.9193 16.6873 24.9193H19.9131C21.6873 24.9193 23.0583 26.3709 23.0583 28.0645C23.0583 29.758 21.6066 31.2097 19.9131 31.2097H11.526C7.97761 31.2097 5.15503 34.1129 5.15503 37.5806C5.15503 41.129 8.05825 43.9516 11.526 43.9516H31.6873C32.1712 43.9516 32.5744 43.5484 32.5744 43.0645C32.5744 42.5806 32.2518 42.3387 31.7679 42.3387Z" fill="#FF551F"/>
</svg>
