<svg width="60" height="60" viewBox="0 0 60 60" fill="none" xmlns="http://www.w3.org/2000/svg">
<path d="M30.035 50.5362C29.9651 50.5362 29.8953 50.5362 29.8255 50.5362C28.9176 50.2569 13.0646 41.8764 13.0646 33.5658V17.3636C13.0646 16.9446 13.3439 16.6653 13.7629 16.6653C17.7437 16.6653 28.0097 12.1258 29.4763 10.1006C29.7556 9.75139 30.3842 9.75139 30.5937 10.1006C31.9904 12.056 41.7676 16.6653 46.2372 16.6653C46.6562 16.6653 46.9355 16.9446 46.9355 17.3636V34.4737C46.9355 41.3177 30.9429 50.3267 30.1747 50.5362C30.1048 50.5362 30.035 50.5362 30.035 50.5362ZM14.4613 17.9922V33.5658C14.4613 37.2672 18.5119 41.1781 21.864 43.8319C25.4956 46.6952 29.1271 48.6506 30.035 49.0696C32.1301 48.0919 45.6086 39.7813 45.6086 34.4737V17.9922C40.9994 17.643 32.6189 13.9416 30.035 11.4973C27.3113 14.0114 18.6515 17.5731 14.4613 17.9922Z" fill="#FF551F" stroke="#FF551F" stroke-width="0.4"/>
<path d="M30.0349 46.2761C29.7555 46.2761 29.4762 46.0665 29.3365 45.7872C29.2667 45.438 29.4762 45.019 29.8254 44.9491C30.8729 44.5301 42.1865 37.0576 42.1865 32.7975V20.7855C42.1865 20.3665 42.4659 20.0872 42.8849 20.0872C43.3039 20.0872 43.5833 20.3665 43.5833 20.7855V32.7277C43.5833 38.0353 31.2221 45.9967 30.2444 46.2062C30.1047 46.276 30.0349 46.2761 30.0349 46.2761Z" fill="#FF551F" stroke="#FF551F" stroke-width="0.4"/>
<path d="M17.1848 34.2642C16.7658 34.2642 16.4865 33.9849 16.4865 33.5658V20.7857C16.4865 20.3666 16.7658 20.0873 17.1848 20.0873C20.3973 20.0873 28.3587 16.7351 29.4063 15.2685C29.6158 14.9193 30.0348 14.8495 30.384 15.1289C30.7332 15.4082 30.803 15.7574 30.5237 16.1066C29.1968 17.9922 21.6544 21.1348 17.8134 21.484V33.5658C17.8832 33.9849 17.6038 34.2642 17.1848 34.2642Z" fill="#FF551F" stroke="#FF551F" stroke-width="0.4"/>
<path d="M28.289 34.2643C28.0795 34.2643 27.9398 34.1944 27.8001 34.0547L24.3781 30.6327C24.0987 30.3534 24.0987 29.9344 24.3781 29.655C24.6574 29.3757 25.0765 29.3757 25.3558 29.655L28.2191 32.5183L34.5743 25.3949C34.8536 25.1156 35.2727 25.0458 35.552 25.3251C35.8314 25.6045 35.9012 26.0235 35.6219 26.3028L28.7778 33.9849C28.708 34.1944 28.4985 34.2643 28.289 34.2643Z" fill="#FF551F" stroke="#FF551F" stroke-width="0.4"/>
</svg>
