<svg width="60" height="60" viewBox="0 0 60 60" fill="none" xmlns="http://www.w3.org/2000/svg">
<path d="M34.9801 16.0075L34.9802 16.0074L34.9741 16.0022C34.2178 15.3623 33.1305 15.0289 31.6857 15.0289H28.7988C28.3615 15.0289 27.9997 15.3908 27.9997 15.8281V21.075H27.0013C26.6185 21.075 26.3111 21.3825 26.3111 21.7653V21.8742C26.3111 22.257 26.6185 22.5644 27.0013 22.5644H27.9997V23.4717H27.0013C26.6185 23.4717 26.3111 23.7791 26.3111 24.1619C26.3111 24.5447 26.6185 24.8521 27.0013 24.8521H27.9997V26.3407C27.9997 26.7779 28.3615 27.1398 28.7988 27.1398C29.2361 27.1398 29.598 26.7779 29.598 26.3407V24.7977H32.9385C33.3213 24.7977 33.6287 24.4902 33.6287 24.1074C33.6287 23.7246 33.3213 23.4172 32.9385 23.4172H29.598V22.5099H31.7402C33.1156 22.5099 34.272 22.2373 34.9835 21.5282C35.7388 20.8295 36.0798 19.9009 36.0798 18.7694C36.0798 17.5781 35.6809 16.65 34.9801 16.0075ZM31.6857 21.075H29.5435V16.4639H31.7402C32.7497 16.4639 33.4014 16.6766 33.8405 17.067C34.2757 17.4538 34.4815 17.9905 34.4815 18.7694C34.4815 19.5343 34.2296 20.0803 33.8362 20.4758C33.3983 20.8623 32.6952 21.075 31.6857 21.075Z" fill="#FF551F" stroke="#FF551F" stroke-width="0.4"/>
<path d="M45.4835 35.0168C45.41 34.4402 45.1331 33.9535 44.7266 33.5978L44.7269 33.5975L44.7164 33.5894C43.6959 32.809 42.1904 33.0153 40.7532 33.9986C40.5876 33.6918 40.372 33.4524 40.0759 33.2551L40.076 33.2549L40.0679 33.25C39.1499 32.6992 37.9128 32.9712 36.3326 33.7885L36.3306 33.7896L31.2104 36.5131L31.2103 36.5128L31.2015 36.5181C30.8498 36.7292 30.6859 37.1734 30.915 37.5551C31.1251 37.9053 31.5665 38.0693 31.9472 37.8444L37.062 35.1238C37.0621 35.1237 37.0623 35.1236 37.0624 35.1235C37.6248 34.829 38.1264 34.6321 38.5277 34.535C38.7285 34.4865 38.8989 34.4642 39.0362 34.4649C39.174 34.4656 39.2646 34.4895 39.3192 34.52C39.3912 34.5641 39.452 34.6557 39.4932 34.8031C39.5339 34.9484 39.5471 35.1186 39.5471 35.2734C39.5471 35.5689 39.699 35.7904 39.9085 35.9301L39.9308 35.9449L39.9562 35.9534C40.1597 36.0212 40.446 36.0283 40.6751 35.8756L40.6751 35.8756L40.6774 35.874L41.5466 35.2764C41.547 35.2762 41.5474 35.2759 41.5478 35.2756C42.1017 34.9066 42.5921 34.7163 42.979 34.6538C43.3729 34.5903 43.6294 34.6626 43.7566 34.7717L43.7633 34.7774L43.7705 34.7826C43.8967 34.8727 43.9749 35.0241 43.9866 35.2628C43.9984 35.5045 43.9395 35.8158 43.8085 36.1833C43.7443 36.3454 43.721 36.5107 43.7608 36.6701C43.8003 36.8282 43.8962 36.9573 44.0282 37.0592C44.2787 37.2985 44.6584 37.2722 44.9311 37.0688C45.6001 36.5872 46.2049 36.2743 46.7261 36.1263C47.2432 35.9795 47.6619 35.9989 47.983 36.1562C48.3551 36.3922 48.4801 36.7073 48.4801 36.962C48.4801 37.087 48.4398 37.4356 48.0382 37.6587L48.0381 37.6584L48.0287 37.6643L34.4658 46.216L34.4647 46.2167C33.1354 47.0675 31.6011 47.4824 30.2957 47.6229C29.6437 47.6932 29.053 47.6945 28.5787 47.6491C28.0958 47.6029 27.7587 47.5106 27.5944 47.412L27.5469 47.3835H27.5117L27.4993 47.3774L27.4971 47.3763C27.4848 47.3702 27.4629 47.3592 27.4392 47.3503C27.4195 47.3429 27.3927 47.3346 27.3608 47.3309C25.7248 46.9081 24.3969 46.4856 23.2228 46.1119L23.1401 46.0856L23.1397 46.0855L23.0455 46.0558C19.9875 45.0899 17.9396 44.4431 14.0669 44.934L14.0669 44.9338L14.0592 44.9351C13.6527 45.0029 13.3252 45.3575 13.4051 45.7675C13.4738 46.1709 13.825 46.4955 14.2318 46.4195C17.8333 45.9905 19.5976 46.5246 22.636 47.5012C23.7764 47.8813 25.1351 48.3162 26.8182 48.7514C27.3529 49.0397 28.1992 49.1997 29.1801 49.1997C30.9508 49.1997 33.224 48.758 35.116 47.5341C35.1163 47.5339 35.1166 47.5337 35.1169 47.5335L48.8331 38.8793C49.5513 38.5157 50.0239 37.7402 50.0239 36.9075C50.0239 36.0063 49.4834 35.2359 48.7204 34.825L48.7205 34.8249L48.715 34.8222C48.1436 34.5365 47.076 34.2789 45.4835 35.0168Z" fill="#FF551F" stroke="#FF551F" stroke-width="0.4"/>
<path d="M22.3229 40.2927L22.3227 40.293L22.3337 40.2987C25.1675 41.7701 27.5476 42.8268 30.3239 42.8268C32.0427 42.8268 33.8659 42.4386 35.9546 41.5051C36.668 41.2468 37.1284 40.8533 37.3931 40.407C37.6576 39.961 37.7174 39.4782 37.6573 39.058L37.6575 39.0579L37.6559 39.0494C37.4781 38.1011 36.7044 37.3135 35.7288 37.2526L35.7288 37.2525L35.7258 37.2524C35.4888 37.2411 35.2629 37.2298 35.0465 37.2189C34.2238 37.1777 33.5372 37.1433 32.8858 37.1432L32.8538 37.1426C31.396 37.1157 30.481 37.0987 29.4876 36.772C28.4852 36.4422 27.3904 35.7919 25.5953 34.4592L25.5953 34.4592L22.221 31.9557C21.765 31.5925 21.0227 31.384 20.1873 31.3492C19.3433 31.3141 18.3759 31.4545 17.4503 31.8192L17.4503 31.8191L17.4474 31.8203L11.2388 34.38C10.847 34.5374 10.7137 34.9917 10.8561 35.3477C11.0131 35.7403 11.4679 35.874 11.8241 35.7314L11.8241 35.7315L11.8261 35.7307L18.0356 33.1706L18.0356 33.1706L18.0373 33.1699C18.716 32.8827 19.4364 32.7777 20.0453 32.7907C20.3494 32.7973 20.6221 32.8332 20.8447 32.8887C21.0708 32.945 21.2312 33.018 21.3226 33.0891L21.3226 33.0891L21.3262 33.0918L24.7028 35.5971C24.7029 35.5971 24.703 35.5972 24.703 35.5972C26.6414 37.0441 27.9157 37.7821 29.0987 38.1601C30.2611 38.5315 31.3226 38.5504 32.7991 38.5767L32.8804 38.5781V38.5782H32.8839C33.4746 38.5782 34.1305 38.6111 34.9368 38.6516C35.1591 38.6627 35.3928 38.6745 35.6397 38.6863C35.8892 38.7326 36.1311 38.9439 36.1717 39.2217C36.2075 39.5154 35.9983 39.8369 35.3671 40.1L35.367 40.0998L35.3604 40.1029C33.0141 41.1817 31.1587 41.5376 29.285 41.3183C27.4067 41.0985 25.4902 40.2989 23.0213 39.0244C22.6796 38.783 22.2417 38.9776 22.0417 39.3015C21.7912 39.6471 21.9918 40.094 22.3229 40.2927Z" fill="#FF551F" stroke="#FF551F" stroke-width="0.4"/>
<path d="M19.557 20.6213C19.557 26.56 24.3853 31.3884 30.324 31.3884C36.264 31.3884 41.091 26.5042 41.091 20.5669C41.091 14.6282 36.2627 9.79982 30.324 9.79982C24.3847 9.79982 19.557 14.6289 19.557 20.6213ZM21.0463 20.5669C21.0463 15.4483 25.2054 11.2892 30.324 11.2892C35.4426 11.2892 39.6017 15.4483 39.6017 20.5669C39.6017 25.6855 35.4426 29.8445 30.324 29.8445C25.2054 29.8445 21.0463 25.6855 21.0463 20.5669Z" fill="#FF551F" stroke="#FF551F" stroke-width="0.4"/>
</svg>
