<svg width="51" height="50" viewBox="0 0 51 50" fill="none" xmlns="http://www.w3.org/2000/svg">
<path d="M44.3273 12.0969H5.74763C4.09832 12.0969 2.73584 13.4593 2.73584 15.1087V34.9722C2.73584 36.6215 4.09832 37.984 5.74763 37.984H44.3273C45.9766 37.984 47.3391 36.6215 47.3391 34.9722V15.1087C47.3391 13.4593 45.9766 12.0969 44.3273 12.0969ZM45.9049 34.9722C45.9049 35.8327 45.1878 36.5498 44.3273 36.5498H5.74763C4.88712 36.5498 4.17003 35.8327 4.17003 34.9722V15.1087C4.17003 14.2481 4.88712 13.5311 5.74763 13.5311H44.3273C45.1878 13.5311 45.9049 14.2481 45.9049 15.1087V34.9722Z" fill="#141414"/>
<path d="M17.8665 15.1087C17.4363 15.1087 17.1494 15.3956 17.1494 15.8258V34.1117C17.1494 34.542 17.4363 34.8288 17.8665 34.8288C18.2968 34.8288 18.5836 34.542 18.5836 34.1117V15.8258C18.5836 15.3956 18.2968 15.1087 17.8665 15.1087Z" fill="#141414"/>
<path d="M32.1368 15.1087C31.7065 15.1087 31.4197 15.3956 31.4197 15.8258V34.1117C31.4197 34.542 31.7065 34.8288 32.1368 34.8288C32.567 34.8288 32.8539 34.542 32.8539 34.1117V15.8258C32.8539 15.3956 32.4953 15.1087 32.1368 15.1087Z" fill="#141414"/>
<path d="M12.7034 24.9331C12.4882 24.6463 12.1297 24.5029 11.8428 24.3595C11.4843 24.2161 11.1258 24.1443 10.7672 24.1443C10.4087 24.1443 10.1218 24.2161 9.83498 24.2878C9.54815 24.3595 9.33302 24.5029 9.11789 24.718L9.33302 22.3516H13.0619V21.276H8.18567L7.82712 26.0088H8.97447C9.04618 25.9371 9.11789 25.7937 9.26131 25.722C9.33302 25.6502 9.47644 25.5785 9.61986 25.5068C9.76327 25.4351 9.90669 25.3634 10.0501 25.3634C10.1935 25.2917 10.4087 25.2917 10.5521 25.2917C10.8389 25.2917 11.054 25.3634 11.2692 25.4351C11.4843 25.5068 11.6994 25.6502 11.8428 25.7937C11.9863 25.9371 12.1297 26.1522 12.2014 26.3673C12.2731 26.5825 12.3448 26.8693 12.3448 27.1561C12.3448 27.443 12.2731 27.7298 12.2014 27.9449C12.1297 28.1601 11.9863 28.3752 11.8428 28.5186C11.6994 28.662 11.4843 28.8055 11.2692 28.8772C11.054 28.9489 10.8389 29.0206 10.5521 29.0206C10.1218 29.0206 9.76327 28.9489 9.47644 28.7337C9.1896 28.5186 8.97447 28.3035 8.83105 27.8732H7.54028C7.61199 28.2318 7.75541 28.5186 7.89883 28.8055C8.11396 29.0923 8.32909 29.3074 8.54422 29.5226C8.83105 29.7377 9.11789 29.8811 9.40473 29.9528C9.76327 30.0245 10.0501 30.0962 10.4804 30.0962C10.9106 30.0962 11.3409 30.0245 11.6994 29.8811C12.058 29.7377 12.3448 29.5226 12.6316 29.3074C12.9185 29.0206 13.0619 28.7337 13.2053 28.3752C13.3487 28.0167 13.4205 27.5864 13.4205 27.1561C13.4205 26.7259 13.3487 26.2956 13.2053 25.9371C13.2053 25.5068 12.9902 25.22 12.7034 24.9331Z" fill="#FF551F"/>
<path d="M27.1171 21.9924C26.8302 21.7055 26.5434 21.4904 26.1848 21.347C25.8263 21.2036 25.396 21.1319 24.9658 21.1319C24.5355 21.1319 24.177 21.2036 23.8184 21.347C23.4599 21.4904 23.1731 21.6338 22.8862 21.9207C22.5994 22.1358 22.456 22.4943 22.3125 22.8529C22.1691 23.2114 22.0974 23.57 22.0974 24.0002V24.2154C22.0974 24.6456 22.1691 25.0759 22.3125 25.4344C22.456 25.793 22.5994 26.0798 22.8862 26.2949C23.1013 26.5101 23.3882 26.7252 23.7467 26.8686C24.1053 27.012 24.4638 27.0837 24.8941 27.0837C25.2526 27.0837 25.6112 27.012 25.9697 26.8686C26.2566 26.7252 26.5434 26.5101 26.7585 26.2232C26.7585 26.7252 26.6868 27.1555 26.5434 27.514C26.4717 27.8725 26.3283 28.1594 26.1848 28.3745C26.0414 28.5896 25.8263 28.7331 25.6112 28.8048C25.396 28.8765 25.1092 28.9482 24.8941 28.9482C24.5355 28.9482 24.2487 28.8765 24.0336 28.6614C23.8184 28.5179 23.675 28.3028 23.6033 28.016H22.3842C22.456 28.3028 22.5994 28.5896 22.6711 28.8048C22.8145 29.0199 22.9579 29.235 23.1731 29.4502C23.3882 29.5936 23.6033 29.737 23.8901 29.8804C24.177 29.9521 24.4638 30.0238 24.8224 30.0238C25.2526 30.0238 25.6829 29.9521 26.0414 29.8087C26.4 29.6653 26.7585 29.3784 26.9737 29.0199C27.1888 28.6614 27.4756 28.2311 27.619 27.6574C27.7625 27.0837 27.8342 26.4384 27.8342 25.5778V24.8608C27.8342 24.2154 27.7625 23.6417 27.619 23.1397C27.619 22.7095 27.4039 22.3509 27.1171 21.9924ZM26.7585 24.2871C26.7585 24.5739 26.6868 24.789 26.6151 25.0042C26.5434 25.2193 26.4 25.3627 26.2566 25.5061C26.1131 25.6496 25.898 25.793 25.6829 25.8647C25.4678 25.9364 25.2526 26.0081 24.9658 26.0081C24.7507 26.0081 24.4638 25.9364 24.3204 25.8647C24.1053 25.793 23.9619 25.6496 23.8184 25.5061C23.675 25.3627 23.6033 25.1476 23.4599 24.9325C23.3882 24.7173 23.3165 24.5022 23.3165 24.2154V24.0002C23.3165 23.7134 23.3882 23.4983 23.4599 23.2831C23.5316 23.068 23.675 22.8529 23.8184 22.7095C23.9619 22.5661 24.1053 22.4226 24.3204 22.3509C24.5355 22.2792 24.7507 22.2075 24.9658 22.2075C25.2526 22.2075 25.4678 22.2792 25.6829 22.3509C25.898 22.4226 26.1131 22.5661 26.2566 22.7095C26.4 22.8529 26.5434 23.068 26.6151 23.2831C26.6868 23.4983 26.7585 23.7851 26.7585 24.072V24.2871Z" fill="#FF551F"/>
<path d="M37.73 30.0243V31.3151L39.5227 30.0243V34.542H40.6701V28.7336H39.5227L37.73 30.0243Z" fill="#FF551F"/>
<path d="M41.4588 16.1123C41.4588 16.686 41.3871 17.188 41.3154 17.5465C41.2437 17.9051 41.1003 18.2636 40.9569 18.4788C40.8134 18.6939 40.5983 18.8373 40.3832 18.9807C40.1681 19.0524 39.9529 19.1241 39.6661 19.1241C39.3793 19.1241 39.1641 19.0524 38.949 18.9807C38.7339 18.909 38.5187 18.6939 38.3753 18.4788C38.2319 18.2636 38.0885 17.9768 38.0168 17.5465C37.9451 17.188 37.8734 16.686 37.8734 16.1123V15.5387H36.6543V16.1123C36.6543 16.8294 36.726 17.4748 36.8694 17.9768C37.0128 18.4788 37.228 18.909 37.4431 19.2676C37.7299 19.6261 38.0168 19.8412 38.3753 19.9846C38.7339 20.1281 39.1641 20.1998 39.5944 20.1998C40.0246 20.1998 40.4549 20.1281 40.8134 19.9846C41.172 19.8412 41.4588 19.6261 41.7457 19.2676C42.0325 18.909 42.1759 18.5505 42.3193 17.9768C42.4628 17.4748 42.5345 16.8294 42.5345 16.1123V15.5387H41.4588V16.1123Z" fill="#FF551F"/>
</svg>
