<svg width="51" height="50" viewBox="0 0 51 50" fill="none" xmlns="http://www.w3.org/2000/svg">
<path fill-rule="evenodd" clip-rule="evenodd" d="M32.8165 25.9677C32.7358 25.9677 32.5746 25.9677 32.4939 25.8871C32.4662 25.8594 32.4386 25.8341 32.4117 25.8096L32.4117 25.8095C32.282 25.691 32.1713 25.5898 32.1713 25.3226C32.0907 25.1613 32.0907 24.9193 32.1713 24.758L33.6229 21.7742C34.1068 20.8064 35.3165 20.0806 36.3649 20.0806H38.2197L38.7036 18.1451C38.8649 17.4193 39.6713 16.7742 40.4778 16.7742H44.4294C44.8326 16.7742 45.1552 17.0968 45.1552 17.5C45.1552 17.9032 44.8326 18.2258 44.4294 18.2258H40.4778C40.3165 18.2258 40.1552 18.3871 40.1552 18.4677L39.51 21.2097C39.4294 21.5322 39.1068 21.7742 38.7842 21.7742H36.2842C35.8004 21.7742 35.2358 22.1774 34.9939 22.5806L33.5423 25.5645C33.381 25.8064 33.1391 25.9677 32.8165 25.9677ZM40.9616 20.0806H44.51C44.9133 20.0806 45.2358 20.4839 45.2358 20.8064C45.2358 21.2097 44.9133 21.5322 44.51 21.5322H40.9616C40.5584 21.5322 40.2358 21.2097 40.2358 20.8064C40.2358 20.4032 40.5584 20.0806 40.9616 20.0806ZM34.9938 34.2742L35.9616 35.4032C36.1229 35.5645 36.2841 35.6452 36.5261 35.6452C36.6874 35.6452 36.8487 35.5645 37.0099 35.4839L37.01 35.4839C37.3325 35.2419 37.4132 34.7581 37.0906 34.4355L36.1229 33.3064C35.639 32.7419 34.8325 32.3387 34.1874 32.3387H31.0422C30.639 32.3387 30.3164 32.6613 30.3164 33.0645C30.3164 33.4677 30.639 33.7903 31.0422 33.7903H34.1874C34.2519 33.8226 34.3196 33.8548 34.3874 33.8871C34.6583 34.0161 34.9293 34.1452 34.9938 34.2742ZM36.8488 37.0161H44.5101C44.9133 37.0161 45.2359 37.4193 45.2359 37.7419C45.2359 38.1451 44.9133 38.4677 44.5101 38.4677H36.8488C36.4456 38.4677 36.123 38.1451 36.123 37.7419C36.123 37.3387 36.4456 37.0161 36.8488 37.0161ZM44.51 27.9838H34.268C34.0261 27.9838 33.6229 27.8225 33.4616 27.5806L32.01 25.8064C31.6067 25.2419 30.7196 24.8387 30.0745 24.8387H26.9293C26.0422 24.8387 25.3164 25.5645 25.3164 26.4516V27.9838C25.3164 28.8709 25.9616 29.5967 26.8487 29.6774L29.4293 29.9193L28.3003 32.5806C28.139 32.9838 28.0583 33.5483 28.0583 33.9516V39.2742C28.0583 40.3225 28.7035 41.2903 29.7519 41.6129V44.5161C29.7519 44.9193 30.0745 45.2419 30.4777 45.2419H36.6067C37.01 45.2419 37.3325 44.9193 37.3325 44.5161V42.6613C37.3325 42.258 37.01 41.9354 36.6067 41.9354C36.2035 41.9354 35.8809 42.258 35.8809 42.6613V43.7903H31.2035V40.9677C31.2035 40.5645 30.8809 40.2419 30.4777 40.2419C29.9938 40.2419 29.5906 39.8387 29.5906 39.3548V34.0322C29.5906 33.7903 29.6712 33.4677 29.7519 33.2258L30.9616 30.3225C31.1229 29.9193 31.1229 29.4354 30.8809 29.0322C30.639 28.629 30.2358 28.3871 29.8325 28.3871L26.9293 28.1451C26.8487 28.1451 26.768 28.0645 26.768 27.9838V26.4516C26.768 26.3709 26.768 26.3709 26.8487 26.3709H29.9938C30.2358 26.3709 30.639 26.5322 30.8003 26.7742L32.2519 28.629C32.6551 29.1935 33.5422 29.5967 34.1874 29.5967H44.4293C44.8325 29.5967 45.1551 29.2742 45.1551 28.8709C45.2358 28.3064 44.9132 27.9838 44.51 27.9838ZM33.2196 40.2419H44.51C44.9132 40.2419 45.2358 40.5645 45.2358 40.9677C45.2358 41.371 44.9132 41.6935 44.51 41.6935H33.2196C32.8164 41.6935 32.4938 41.371 32.4938 40.9677C32.4938 40.5645 32.8164 40.2419 33.2196 40.2419Z" fill="#FF551F"/>
<path fill-rule="evenodd" clip-rule="evenodd" d="M15.2355 2.41937C18.1388 2.41937 20.4775 4.75808 20.4775 7.66131C20.4775 10.5645 18.1388 12.9032 15.2355 12.9032C12.3323 12.9032 9.99359 10.5645 9.99359 7.66131C9.99359 4.75808 12.3323 2.41937 15.2355 2.41937ZM18.9452 7.66131C18.9452 5.64518 17.3323 3.95163 15.2355 3.95163C13.2194 3.95163 11.5258 5.64518 11.5258 7.66131C11.5258 9.67744 13.1388 11.371 15.2355 11.371C17.2517 11.371 18.9452 9.75808 18.9452 7.66131ZM28.9454 13.6291C30.6389 13.6291 32.0099 15 32.0099 16.6936C32.0099 18.4678 30.6389 19.8387 29.1873 19.8387H21.3647C21.3244 19.8387 21.3042 19.8387 21.2941 19.8488C21.2841 19.8589 21.2841 19.8791 21.2841 19.9194V43.9516C21.2841 45.7258 19.8324 47.1774 18.0583 47.1774C17.0905 47.1774 16.2034 46.7742 15.5583 46.0484C14.9131 46.7742 14.026 47.1774 13.0583 47.1774C11.2841 47.1774 9.83245 45.7258 9.83245 43.9516V21.2097C9.83245 20.8065 10.155 20.4839 10.5583 20.4839C10.9615 20.4839 11.2841 20.8065 11.2841 21.2097V43.9516C11.2841 44.8387 12.0099 45.6452 12.9776 45.6452C13.8647 45.6452 14.6712 44.9194 14.6712 43.9516V29.3549C14.6712 28.9516 14.9937 28.6291 15.397 28.6291C15.8002 28.6291 16.1228 28.9516 16.1228 29.3549V43.0645V43.9516C16.1228 44.8387 16.9292 45.6452 17.8163 45.6452C18.7034 45.6452 19.5099 44.9194 19.5099 43.9516V19.9194C19.5099 19.0323 20.2357 18.3065 21.1228 18.3065H28.9454C29.7518 18.3065 30.4776 17.6613 30.4776 16.7742C30.4776 15.9678 29.8324 15.242 28.9454 15.242H12.4937C9.26793 15.242 6.68729 17.9032 6.68729 21.2903V27.9839C6.68729 29.1936 7.41309 30.3226 8.46148 30.8065C8.62277 30.8871 8.78406 31.0484 8.86471 31.2097C8.94535 31.371 8.94535 31.6129 8.86471 31.7742C8.62277 32.0968 8.21955 32.2581 7.81632 32.0968C6.20342 31.371 5.15503 29.6774 5.15503 27.9032V21.2097C5.15503 16.9355 8.38084 13.6291 12.4937 13.6291H28.9454Z" fill="#141414"/>
</svg>
