<svg width="20" height="20" viewBox="0 0 20 20" fill="none" xmlns="http://www.w3.org/2000/svg">
<g clip-path="url(#clip0_24_724)">
<path d="M9.99996 18.3333C14.6023 18.3333 18.3333 14.6023 18.3333 9.99996C18.3333 5.39759 14.6023 1.66663 9.99996 1.66663C5.39759 1.66663 1.66663 5.39759 1.66663 9.99996C1.66663 14.6023 5.39759 18.3333 9.99996 18.3333Z" stroke="#FF551F" stroke-width="1.5"/>
<path d="M8.4375 7.39579C8.43754 7.12215 8.50943 6.85333 8.64599 6.61621C8.78255 6.37909 8.97899 6.18199 9.21565 6.04463C9.45231 5.90727 9.72089 5.83447 9.99452 5.83351C10.2682 5.83255 10.5372 5.90346 10.7749 6.03916C11.0125 6.17486 11.2103 6.37057 11.3485 6.60673C11.4867 6.84289 11.5605 7.11121 11.5625 7.38483C11.5644 7.65846 11.4945 7.9278 11.3596 8.16591C11.2248 8.40402 11.0298 8.60254 10.7942 8.74162C10.3983 8.97579 10 9.33162 10 9.79162V10.8333" stroke="#FF551F" stroke-width="1.5" stroke-linecap="round"/>
<path d="M9.99996 14.1667C10.4602 14.1667 10.8333 13.7936 10.8333 13.3333C10.8333 12.8731 10.4602 12.5 9.99996 12.5C9.53972 12.5 9.16663 12.8731 9.16663 13.3333C9.16663 13.7936 9.53972 14.1667 9.99996 14.1667Z" fill="#FF551F"/>
</g>
<defs>
<clipPath id="clip0_24_724">
<rect width="20" height="20" fill="white"/>
</clipPath>
</defs>
</svg>
