<svg width="51" height="50" viewBox="0 0 51 50" fill="none" xmlns="http://www.w3.org/2000/svg">
<path d="M25.0743 5.64514C14.5098 5.64514 5.96143 14.1935 5.96143 24.758C5.96143 35.3226 14.5098 43.8709 25.0743 43.8709C35.6388 43.8709 44.1872 35.3226 44.1872 24.758C44.1872 14.1935 35.5582 5.64514 25.0743 5.64514ZM25.0743 42.1774C15.3969 42.1774 7.57433 34.3548 7.57433 24.758C7.57433 15.1613 15.3969 7.25804 25.0743 7.25804C34.7517 7.25804 42.5743 15.0806 42.5743 24.758C42.5743 34.4355 34.6711 42.1774 25.0743 42.1774Z" fill="#141414"/>
<path d="M23.6227 23.4677C23.2195 23.0645 22.8163 22.8226 22.2517 22.5807C21.6872 22.4194 21.1227 22.2581 20.4775 22.2581C19.913 22.2581 19.3485 22.3387 18.8646 22.5807C18.3808 22.8226 17.9775 23.1452 17.655 23.5484C17.655 22.7419 17.8163 22.0968 17.8969 21.5323C18.0582 20.9678 18.2195 20.5645 18.4614 20.2419C18.7034 19.9194 19.0259 19.6774 19.3485 19.5968C19.6711 19.5161 20.0743 19.4355 20.4775 19.4355C21.0421 19.4355 21.5259 19.5968 21.7679 19.8387C22.0905 20.0807 22.3324 20.4032 22.413 20.8065H24.2679C24.1872 20.4032 24.0259 19.9194 23.784 19.5968C23.5421 19.1936 23.3001 18.871 22.9775 18.629C22.655 18.3871 22.2517 18.1452 21.8485 17.9839C21.4453 17.8226 20.9614 17.7419 20.3969 17.7419C19.6711 17.7419 19.1066 17.9032 18.4614 18.1452C17.8163 18.3871 17.413 18.7903 17.0098 19.3548C16.6066 19.9194 16.284 20.5645 16.0421 21.4516C15.8001 22.3387 15.7195 23.3871 15.7195 24.5968V25.7258C15.7195 26.7742 15.8001 27.5807 16.0421 28.3065C16.284 29.0323 16.6066 29.5968 17.0098 30.0807C17.413 30.5645 17.8969 30.8871 18.4614 31.0484C19.0259 31.2903 19.6711 31.371 20.3163 31.371C20.9614 31.371 21.5259 31.2903 22.0098 31.0484C22.5743 30.8065 22.9775 30.5645 23.3808 30.1613C23.784 29.7581 24.1066 29.3548 24.2679 28.7903C24.5098 28.2258 24.5905 27.6613 24.5905 27.0161V26.6129C24.5905 25.9677 24.5098 25.3226 24.2679 24.7581C24.2679 24.2742 24.0259 23.7903 23.6227 23.4677ZM22.8969 27.0161C22.8969 27.4194 22.8163 27.8226 22.7356 28.1452C22.655 28.4677 22.4937 28.7903 22.2517 28.9516C22.0098 29.1936 21.7679 29.3548 21.4453 29.4355C21.1227 29.5161 20.8001 29.5968 20.3969 29.5968C19.9937 29.5968 19.6711 29.5161 19.3485 29.4355C19.0259 29.3548 18.7034 29.1129 18.4614 28.9516C18.2195 28.7097 18.0582 28.4677 17.8969 28.0645C17.7356 27.6613 17.7356 27.3387 17.7356 26.8548V26.5323C17.7356 26.129 17.8163 25.8065 17.8969 25.4839C17.9775 25.1613 18.2195 24.9194 18.4614 24.6774C18.7034 24.4355 18.9453 24.2742 19.2679 24.1936C19.5904 24.1129 19.9937 24.0323 20.3969 24.0323C20.8001 24.0323 21.1227 24.1129 21.4453 24.1936C21.7679 24.2742 22.0098 24.5161 22.2517 24.6774C22.4937 24.9194 22.655 25.1613 22.7356 25.4839C22.8969 25.8871 22.8969 26.2097 22.8969 26.6129V27.0161Z" fill="#FF551F"/>
<path d="M35.0746 19.1936C34.6714 18.7097 34.1875 18.3065 33.623 18.0645C33.0585 17.8226 32.4133 17.7419 31.6875 17.7419C31.0424 17.7419 30.3972 17.8226 29.8327 18.0645C29.2682 18.3065 28.7843 18.629 28.3811 19.1936C27.9778 19.7581 27.6553 20.3226 27.494 21.129C27.252 21.9355 27.1714 22.9032 27.1714 23.9516V25.0807C27.1714 26.2097 27.252 27.1774 27.494 27.9839C27.7359 28.7903 27.9778 29.4355 28.3811 29.9194C28.7843 30.4032 29.2682 30.8065 29.8327 31.0484C30.3972 31.2903 31.0424 31.371 31.6875 31.371C32.3327 31.371 32.9778 31.2903 33.5424 31.0484C34.1069 30.8065 34.5907 30.4839 34.994 29.9194C35.3972 29.4355 35.7198 28.7903 35.8811 27.9839C36.123 27.1774 36.2036 26.2097 36.2036 25.1613V24.0323C36.2036 22.9032 36.123 21.9355 35.8811 21.129C35.7198 20.3226 35.4778 19.6774 35.0746 19.1936ZM34.4295 25.0807C34.4295 25.9677 34.3488 26.6936 34.2682 27.2581C34.1069 27.8226 33.9456 28.3065 33.7036 28.629C33.4617 28.9516 33.2198 29.1936 32.8972 29.3548C32.5746 29.5161 32.1714 29.5968 31.7682 29.5968C31.3649 29.5968 30.9617 29.5161 30.6391 29.3548C30.3165 29.1936 29.994 28.9516 29.752 28.629C29.5101 28.3065 29.3488 27.8226 29.1875 27.2581C29.0262 26.6936 29.0262 25.9677 29.0262 25.0807V23.9516C29.0262 23.0645 29.1069 22.3387 29.1875 21.7742C29.3488 21.2097 29.5101 20.7258 29.752 20.4032C29.994 20.0807 30.2359 19.8387 30.5585 19.6774C30.8811 19.5161 31.2843 19.4355 31.6875 19.4355C32.0907 19.4355 32.494 19.5161 32.8165 19.6774C33.1391 19.8387 33.4617 20.0807 33.7036 20.4032C33.9456 20.7258 34.1069 21.2097 34.2682 21.7742C34.4295 22.3387 34.4295 23.0645 34.4295 23.9516V25.0807Z" fill="#FF551F"/>
</svg>
