<svg width="51" height="50" viewBox="0 0 51 50" fill="none" xmlns="http://www.w3.org/2000/svg">
<path d="M25.4776 7.25806C14.6711 7.25806 5.96143 15.9677 5.96143 26.7742C5.96143 31.129 7.49368 35.4839 10.2356 38.9516C10.3969 39.1129 10.6388 39.2742 10.8001 39.2742C10.9614 39.2742 11.1227 39.1935 11.284 39.1129C11.6066 38.871 11.6872 38.3871 11.3647 38.0645C10.9614 37.5806 10.5582 37.0161 10.2356 36.4516L12.1711 35.3226C12.5743 35.0806 12.655 34.6774 12.413 34.2742C12.1711 33.871 11.7679 33.7903 11.3647 34.0322L9.42917 35.1613C8.21949 32.8226 7.49368 30.3226 7.41304 27.6613H9.6711C10.0743 27.6613 10.4776 27.3387 10.4776 26.8548C10.4776 26.371 10.155 26.0484 9.6711 26.0484H7.41304C7.49368 23.3871 8.21949 20.8064 9.42917 18.5484L11.3647 19.6774C11.6872 19.9193 12.2517 19.7581 12.413 19.4355C12.655 19.0322 12.4937 18.629 12.1711 18.3871L10.2356 17.2581C11.6066 15.0806 13.5421 13.1452 15.7195 11.7742L16.8485 13.7097C17.0905 14.0322 17.5743 14.1935 17.8969 13.9516C18.3001 13.7097 18.3808 13.3064 18.1388 12.9032L17.0098 10.9677C19.3485 9.75806 21.9292 9.03225 24.5098 8.9516V11.2097C24.5098 11.6129 24.8324 12.0161 25.3163 12.0161C25.8001 12.0161 26.1227 11.6935 26.1227 11.2097V8.79031C28.784 8.87096 31.3646 9.59677 33.6227 10.8064L32.4937 12.7419C32.2517 13.1452 32.413 13.5484 32.7356 13.7903C33.0582 14.0322 33.5421 13.871 33.784 13.5484L34.913 11.6129C37.0905 12.9839 39.0259 14.9193 40.3969 17.0968L38.4614 18.2258C38.0582 18.4677 37.9776 18.871 38.2195 19.2742C38.4614 19.5968 38.9453 19.7581 39.2679 19.5161L41.2034 18.3871C42.413 20.7258 43.1388 23.3064 43.2195 25.8871H40.9614C40.5582 25.8871 40.155 26.2097 40.155 26.6935C40.155 27.0968 40.4776 27.5 40.9614 27.5H43.2195C43.1388 30.1613 42.413 32.7419 41.2034 35L39.4292 33.871C39.2679 33.7903 39.0259 33.7097 38.8646 33.7903C38.7034 33.871 38.4614 33.9516 38.3808 34.1129C38.1388 34.5161 38.3001 34.9193 38.6227 35.1613L40.5582 36.2903C40.2356 36.8548 39.8324 37.3387 39.4292 37.9032C39.2679 38.0645 39.2679 38.2258 39.2679 38.4677C39.2679 38.7097 39.4292 38.871 39.5905 38.9516C39.913 39.1935 40.3969 39.1935 40.6388 38.871C43.3808 35.4032 44.913 31.129 44.913 26.6935C44.913 15.9677 36.2034 7.25806 25.4776 7.25806Z" fill="#141414"/>
<path d="M33.3003 37.6613H17.5745C16.8487 37.6613 16.2842 38.2258 16.2842 38.9516V42.0161C16.2842 42.7419 16.8487 43.3064 17.5745 43.3064H33.3003C34.0261 43.3064 34.5906 42.7419 34.5906 42.0161V38.9516C34.5906 38.2258 34.0261 37.6613 33.3003 37.6613ZM33.0584 41.7742H17.8164V39.2742H32.9777V41.7742H33.0584Z" fill="#FF551F"/>
<path d="M36.284 22.2581L27.7357 24.3548C27.5744 24.2742 27.4131 24.1935 27.3324 24.1129C26.526 23.7903 25.5582 23.7903 24.7518 24.1129C23.9453 24.4355 23.3002 25.0806 22.9776 25.9677C22.2518 27.6613 23.0582 29.5968 24.7518 30.3226H24.8324C25.6389 30.6452 26.6066 30.6452 27.4131 30.3226C28.2195 30 28.8647 29.3548 29.1873 28.4677C29.2679 28.3871 29.2679 28.2258 29.2679 28.1452L34.5098 25.2419C36.2034 24.2742 36.7679 23.9516 37.0098 23.871C37.2518 23.7097 37.9776 23.3064 37.7357 22.6613C37.3324 22.0161 36.526 22.1774 36.284 22.2581ZM27.655 27.9032C27.4937 28.3871 27.0905 28.7097 26.6873 28.871C26.2034 29.0323 25.7195 29.0323 25.3163 28.871L25.2357 29.1129L25.3163 28.7903C24.4292 28.3871 24.026 27.3387 24.3486 26.4516C24.5098 25.9677 24.9131 25.6452 25.3163 25.4839C25.8002 25.3226 26.284 25.3226 26.7679 25.4839C27.655 25.9677 28.0582 27.0161 27.655 27.9032ZM29.2679 26.371C29.1873 26.129 29.1066 25.8871 28.9453 25.6452L31.9292 24.9193L29.2679 26.371Z" fill="#FF551F"/>
</svg>
