<svg width="60" height="60" viewBox="0 0 60 60" fill="none" xmlns="http://www.w3.org/2000/svg">
<path fill-rule="evenodd" clip-rule="evenodd" d="M30.0001 9.28571C18.5946 9.28571 9.28577 18.5946 9.28577 30C9.28577 41.4054 18.5946 50.7143 30.0001 50.7143C41.4055 50.7143 50.7143 41.4054 50.7143 30C50.7143 18.5946 41.4055 9.28571 30.0001 9.28571ZM48.8693 30C48.8693 40.4829 40.3991 48.9531 29.9162 48.9531C19.4333 48.9531 10.963 40.4829 10.963 30C10.963 19.5171 19.5171 11.0468 30.0001 11.0468C40.3991 11.0468 48.8693 19.5171 48.8693 30ZM40.0636 16.8334C37.1284 14.5691 33.69 13.395 30 13.395H29.9161C26.2261 13.395 22.7877 14.5691 19.8525 16.8334C17.0012 19.0139 14.9046 22.1168 13.9821 25.4714C13.7305 26.31 13.9821 27.1487 14.653 27.7357C15.0723 28.0712 15.5755 28.2389 16.0787 28.2389C16.4141 28.2389 16.7496 28.155 17.085 27.9873C21.1105 25.9746 25.4714 25.0521 30 24.9682C34.5286 24.9682 38.8895 25.9746 42.915 27.9873C43.6698 28.4066 44.5923 28.2389 45.2632 27.7357C45.9341 27.1487 46.1857 26.31 45.9341 25.4714C44.9277 22.033 42.8311 18.93 40.0636 16.8334ZM44.2568 25.8907C44.3407 26.0584 44.2568 26.2262 44.0891 26.3939C43.9213 26.4777 43.7536 26.5616 43.5859 26.4777C39.3089 24.3812 34.6964 23.2909 29.9161 23.2909C25.1359 23.2909 20.5234 24.3812 16.2464 26.4777C16.0787 26.5616 15.9109 26.5616 15.7432 26.3939C15.5755 26.31 15.5755 26.0584 15.5755 25.8907C17.3366 19.5171 23.2071 15.0723 29.8323 15.0723C36.5414 15.0723 42.4118 19.5171 44.2568 25.8907ZM38.4701 31.9289C40.4829 31.7611 42.4117 31.4257 44.3406 31.0902C44.8438 31.0064 45.4308 31.1741 45.7663 31.5934C46.1856 32.0127 46.3533 32.5159 46.2694 33.1029C45.0115 39.8959 39.4765 45.1793 32.6835 46.3534C31.761 46.5211 30.8385 46.605 29.916 46.605C28.8258 46.605 27.7356 46.5211 26.6454 46.2695H26.5615C23.2908 45.5986 20.4395 44.0052 18.0913 41.657C15.7431 39.3088 14.1497 36.3736 13.5627 33.1029C13.4788 32.5159 13.6465 32.0127 14.0658 31.5934C14.4852 31.1741 14.9883 31.0064 15.5754 31.0902C15.7307 31.1161 15.8854 31.142 16.0397 31.1678C17.8857 31.4764 19.6658 31.7741 21.4458 31.9289C22.1167 32.0127 22.7038 32.5159 22.9554 33.1868C23.4586 34.6963 24.0456 35.9543 24.8004 37.0445C25.052 37.38 25.4713 37.6316 25.8906 37.7993C26.0583 37.7993 26.2261 37.8832 26.3938 37.967C28.5742 38.4702 30.9224 38.4702 33.1029 38.0509L34.1092 37.7993C34.5285 37.6316 34.9479 37.38 35.1995 36.9607C35.8704 35.8704 36.4574 34.6125 36.9606 33.1868C37.2122 32.5159 37.7992 32.0127 38.4701 31.9289ZM33.5222 44.3406C39.141 42.9988 43.5019 38.4702 44.5922 32.7675C42.5794 33.1868 40.6506 33.4384 38.7217 33.5223C38.6379 33.5223 38.6379 33.6061 38.6379 33.6061C38.0508 35.1995 37.3799 36.6252 36.6251 37.7993C36.1219 38.5541 35.3672 39.0572 34.5285 39.3088C34.4447 39.3508 34.3608 39.3717 34.277 39.3927C34.1931 39.4137 34.1092 39.4346 34.0254 39.4766L33.5222 44.3406ZM31.761 44.6761L32.2642 39.8959C30.5031 40.1475 28.8258 40.1475 27.1486 39.7282L27.6517 44.5922C28.9935 44.8438 30.4192 44.8438 31.761 44.6761ZM15.3238 32.7675C16.414 38.3025 20.5233 42.7472 25.8067 44.2568L25.3036 39.3927C24.4649 39.1411 23.794 38.6379 23.2908 37.8832C22.4522 36.7091 21.7813 35.2834 21.2781 33.69C21.2781 33.6061 21.1942 33.6061 21.1942 33.6061C19.2654 33.4384 17.2527 33.1029 15.3238 32.7675Z" fill="#FF551F"/>
</svg>
